<svg width="30" height="30" viewBox="0 0 30 30" fill="none" xmlns="http://www.w3.org/2000/svg">
<path d="M15 2C15.2155 2 15.4222 2.0856 15.5745 2.23798C15.7269 2.39035 15.8125 2.59701 15.8125 2.8125V5.25H17.4375C18.084 5.25 18.704 5.50681 19.1611 5.96393C19.6182 6.42105 19.875 7.04103 19.875 7.6875V13.375H23.9375C24.584 13.375 25.204 13.6318 25.6611 14.0889C26.1182 14.546 26.375 15.166 26.375 15.8125V25.5625C26.375 26.209 26.1182 26.829 25.6611 27.2861C25.204 27.7432 24.584 28 23.9375 28H6.0625C5.41603 28 4.79605 27.7432 4.33893 27.2861C3.88181 26.829 3.625 26.209 3.625 25.5625V15.5135C3.62502 15.0927 3.73399 14.679 3.9413 14.3128C4.14861 13.9466 4.4472 13.6403 4.808 13.4237L9.683 10.4987C9.82307 10.414 9.97111 10.3433 10.125 10.2875V7.6875C10.125 7.04103 10.3818 6.42105 10.8389 5.96393C11.296 5.50681 11.916 5.25 12.5625 5.25H14.1875V2.8125C14.1875 2.59701 14.2731 2.39035 14.4255 2.23798C14.5778 2.0856 14.7845 2 15 2ZM11.75 10.2891C12.6649 10.6174 13.375 11.4786 13.375 12.5885V26.375H16.625V15.8125C16.6247 15.3082 16.7809 14.8163 17.0719 14.4045C17.363 13.9926 17.7746 13.6812 18.25 13.5131V7.68913C18.25 7.47364 18.1644 7.26697 18.012 7.1146C17.8597 6.96223 17.653 6.87663 17.4375 6.87663H12.5625C12.347 6.87663 12.1403 6.96223 11.988 7.1146C11.8356 7.26697 11.75 7.47364 11.75 7.68913V10.2891ZM19.0625 15C18.847 15 18.6403 15.0856 18.488 15.238C18.3356 15.3903 18.25 15.597 18.25 15.8125V26.375H23.9375C24.153 26.375 24.3597 26.2894 24.512 26.137C24.6644 25.9847 24.75 25.778 24.75 25.5625V15.8125C24.75 15.597 24.6644 15.3903 24.512 15.238C24.3597 15.0856 24.153 15 23.9375 15H19.0625ZM10.5199 11.8914L5.64488 14.8164C5.52419 14.8887 5.42435 14.9911 5.35514 15.1136C5.28592 15.2361 5.24969 15.3744 5.25 15.5151V25.5625C5.25 25.778 5.3356 25.9847 5.48798 26.137C5.64035 26.2894 5.84701 26.375 6.0625 26.375H11.75V12.5885C11.75 12.4447 11.7119 12.3036 11.6396 12.1793C11.5672 12.0551 11.4632 11.9523 11.3381 11.8815C11.213 11.8106 11.0714 11.7741 10.9276 11.7759C10.7839 11.7776 10.6432 11.8175 10.5199 11.8914Z" fill="#222222"/>
</svg>
