<svg width="36" height="36" viewBox="0 0 36 36" fill="none" xmlns="http://www.w3.org/2000/svg">
<path d="M29 18C29 11.9271 24.0729 7 18 7C11.9271 7 7 11.9271 7 18C7 24.0729 11.9271 29 18 29C24.0729 29 29 24.0729 29 18Z" stroke="white" stroke-width="1.83333" stroke-miterlimit="10"/>
<path d="M23.4216 11.9801L16.707 14.6659C16.2458 14.8503 15.827 15.1265 15.4758 15.4777C15.1246 15.8289 14.8484 16.2478 14.664 16.7089L11.9781 23.4235C11.9448 23.5068 11.9366 23.5981 11.9547 23.6859C11.9727 23.7738 12.0161 23.8545 12.0796 23.9179C12.143 23.9814 12.2237 24.0248 12.3115 24.0428C12.3994 24.0609 12.4907 24.0527 12.574 24.0194L19.2886 21.3335C19.7497 21.1491 20.1686 20.8729 20.5198 20.5217C20.871 20.1705 21.1472 19.7517 21.3316 19.2905L24.0174 12.5759C24.0507 12.4926 24.0589 12.4014 24.0409 12.3135C24.0229 12.2256 23.9794 12.1449 23.916 12.0815C23.8525 12.0181 23.7719 11.9746 23.684 11.9566C23.5961 11.9386 23.5049 11.9467 23.4216 11.9801ZM17.9978 19.3747C17.7258 19.3747 17.46 19.2941 17.2339 19.143C17.0077 18.9919 16.8315 18.7772 16.7274 18.5259C16.6234 18.2747 16.5961 17.9982 16.6492 17.7315C16.7022 17.4647 16.8332 17.2197 17.0255 17.0275C17.2178 16.8352 17.4628 16.7042 17.7295 16.6511C17.9962 16.5981 18.2727 16.6253 18.524 16.7294C18.7752 16.8335 18.99 17.0097 19.141 17.2358C19.2921 17.4619 19.3728 17.7278 19.3728 17.9997C19.3728 18.3644 19.2279 18.7141 18.97 18.972C18.7122 19.2299 18.3624 19.3747 17.9978 19.3747Z" fill="white"/>
</svg>
