<svg width="36" height="36" viewBox="0 0 36 36" fill="none" xmlns="http://www.w3.org/2000/svg">
<circle cx="18.0039" cy="10.8477" r="3.62114" stroke="white" stroke-width="2" stroke-miterlimit="10" stroke-linecap="round"/>
<circle cx="10.0352" cy="22.7227" r="3.62114" stroke="white" stroke-width="2" stroke-miterlimit="10" stroke-linecap="round"/>
<path fill-rule="evenodd" clip-rule="evenodd" d="M21.6296 11.0371C21.6101 11.4182 21.5316 11.7837 21.4031 12.1247C24.0901 13.3526 25.9935 15.9981 26.1566 19.1048C26.5405 19.1238 26.9087 19.2026 27.2521 19.3321C27.1701 15.6019 24.876 12.417 21.6296 11.0371ZM24.5615 26.0566C24.2137 25.909 23.8936 25.7087 23.6115 25.4655C22.1524 26.8425 20.185 27.6866 18.0204 27.6866C15.8488 27.6866 13.8756 26.837 12.4151 25.452C12.1349 25.6963 11.8166 25.8982 11.4704 26.0476C13.143 27.7308 15.46 28.7729 18.0204 28.7729C20.5763 28.7729 22.8896 27.7345 24.5615 26.0566ZM14.6256 12.1302C11.9455 13.3603 10.0477 16.002 9.88433 19.1034C9.50083 19.1193 9.13273 19.1948 8.78906 19.3209C8.87527 15.6009 11.1616 12.4247 14.3974 11.043C14.4175 11.424 14.4966 11.7894 14.6256 12.1302Z" fill="white"/>
<path d="M21.4031 12.1247L21.0288 11.9837L20.8971 12.3332L21.2369 12.4885L21.4031 12.1247ZM21.6296 11.0371L21.7861 10.669L21.2595 10.4452L21.2302 11.0166L21.6296 11.0371ZM26.1566 19.1048L25.7572 19.1257L25.7761 19.4864L26.1368 19.5043L26.1566 19.1048ZM27.2521 19.3321L27.1109 19.7064L27.665 19.9154L27.652 19.3233L27.2521 19.3321ZM24.5615 26.0566L24.8449 26.3389L25.2628 25.9195L24.7177 25.6883L24.5615 26.0566ZM23.6115 25.4655L23.8726 25.1625L23.5993 24.927L23.3369 25.1746L23.6115 25.4655ZM12.4151 25.452L12.6904 25.1618L12.4265 24.9115L12.1523 25.1505L12.4151 25.452ZM11.4704 26.0476L11.3119 25.6804L10.7728 25.9131L11.1867 26.3296L11.4704 26.0476ZM9.88433 19.1034L9.90088 19.5031L10.2646 19.488L10.2838 19.1244L9.88433 19.1034ZM14.6256 12.1302L14.7925 12.4938L15.132 12.3379L14.9997 11.9886L14.6256 12.1302ZM8.78906 19.3209L8.38917 19.3117L8.37556 19.8988L8.92689 19.6965L8.78906 19.3209ZM14.3974 11.043L14.7968 11.0219L14.7665 10.4504L14.2403 10.6752L14.3974 11.043ZM21.7775 12.2657C21.9203 11.8866 22.0074 11.4805 22.0291 11.0576L21.2302 11.0166C21.2127 11.3558 21.1429 11.6807 21.0288 11.9837L21.7775 12.2657ZM26.5561 19.0838C26.3848 15.8236 24.3875 13.0487 21.5694 11.7609L21.2369 12.4885C23.7927 13.6565 25.6021 16.1727 25.7572 19.1257L26.5561 19.0838ZM26.1368 19.5043C26.4786 19.5212 26.8059 19.5913 27.1109 19.7064L27.3932 18.9579C27.0116 18.8139 26.6025 18.7264 26.1764 18.7052L26.1368 19.5043ZM21.4732 11.4052C24.5797 12.7257 26.7737 15.7731 26.8522 19.3409L27.652 19.3233C27.5664 15.4307 25.1723 12.1083 21.7861 10.669L21.4732 11.4052ZM24.7177 25.6883C24.4085 25.5572 24.1238 25.379 23.8726 25.1625L23.3503 25.7685C23.6634 26.0383 24.0188 26.2609 24.4054 26.4248L24.7177 25.6883ZM18.0204 28.0866C20.2911 28.0866 22.3557 27.2007 23.886 25.7564L23.3369 25.1746C21.9492 26.4843 20.0789 27.2866 18.0204 27.2866V28.0866ZM12.1399 25.7423C13.6717 27.1949 15.7424 28.0866 18.0204 28.0866V27.2866C15.9552 27.2866 14.0795 26.4791 12.6904 25.1618L12.1399 25.7423ZM11.6289 26.4149C12.0136 26.2489 12.3669 26.0247 12.678 25.7535L12.1523 25.1505C11.9028 25.368 11.6196 25.5476 11.3119 25.6804L11.6289 26.4149ZM18.0204 28.3729C15.5708 28.3729 13.3548 27.3764 11.7542 25.7657L11.1867 26.3296C12.9313 28.0852 15.3492 29.1729 18.0204 29.1729V28.3729ZM24.2782 25.7742C22.6783 27.3799 20.4657 28.3729 18.0204 28.3729V29.1729C20.6869 29.1729 23.101 28.0891 24.8449 26.3389L24.2782 25.7742ZM10.2838 19.1244C10.4391 16.1764 12.2431 13.6638 14.7925 12.4938L14.4588 11.7667C11.6478 13.0568 9.65634 15.8276 9.48488 19.0824L10.2838 19.1244ZM8.92689 19.6965C9.23218 19.5844 9.55939 19.5172 9.90088 19.5031L9.86777 18.7037C9.44226 18.7214 9.03328 18.8052 8.65124 18.9454L8.92689 19.6965ZM14.2403 10.6752C10.8651 12.1163 8.47914 15.4296 8.38917 19.3117L9.18896 19.3302C9.27141 15.7721 11.458 12.733 14.5544 11.4109L14.2403 10.6752ZM14.9997 11.9886C14.8851 11.6858 14.8148 11.361 14.7968 11.0219L13.9979 11.0642C14.0203 11.487 14.1081 11.893 14.2516 12.2718L14.9997 11.9886Z" fill="white"/>
<circle cx="25.9649" cy="22.7227" r="3.62114" stroke="white" stroke-width="2" stroke-miterlimit="10" stroke-linecap="round"/>
</svg>
