<svg width="30" height="30" viewBox="0 0 30 30" fill="none" xmlns="http://www.w3.org/2000/svg">
<path d="M12.809 24.8404L14.3455 21.1565C14.4125 20.9969 14.3276 20.8164 14.1579 20.7556L10.8192 19.5234C10.5914 19.4394 10.5356 19.1581 10.7187 19.0049L16.6792 13.9565C16.9382 13.7382 17.3335 13.9943 17.2062 14.3008L15.6698 17.9847C15.6028 18.1443 15.6876 18.3248 15.8574 18.3857L19.1983 19.6157C19.426 19.6997 19.4796 19.981 19.2987 20.1342L13.3383 25.1826C13.0792 25.4009 12.684 25.1448 12.8113 24.8383" fill="#222222"/>
<path d="M6.75 4C6.75 3.30964 7.30964 2.75 8 2.75H22C22.6904 2.75 23.25 3.30964 23.25 4V26C23.25 26.6904 22.6904 27.25 22 27.25H8C7.30964 27.25 6.75 26.6904 6.75 26V4Z" stroke="#222222" stroke-width="1.5"/>
<path d="M9.97656 5.86524C9.97656 5.72716 10.0885 5.61523 10.2266 5.61523H19.7821C19.9202 5.61523 20.0321 5.72716 20.0321 5.86523V11.4867C20.0321 11.6247 19.9202 11.7367 19.7821 11.7367H10.2266C10.0885 11.7367 9.97656 11.6247 9.97656 11.4867V5.86524Z" stroke="#222222" stroke-width="1.5"/>
</svg>
